<?xml version="1.0" encoding="UTF-8"?>
<!DOCTYPE svg PUBLIC "-//W3C//DTD SVG 1.1//EN" "http://www.w3.org/Graphics/SVG/1.1/DTD/svg11.dtd">
<svg xmlns="http://www.w3.org/2000/svg" version="1.1" width="100px" height="100px" style="shape-rendering:geometricPrecision; text-rendering:geometricPrecision; image-rendering:optimizeQuality; fill-rule:evenodd; clip-rule:evenodd" xmlns:xlink="http://www.w3.org/1999/xlink">
<g><path style="opacity:0.984" fill="#6b19fe" d="M 68.5,7.5 C 70.4484,12.988 70.9484,18.6547 70,24.5C 65.0838,28.445 65.5838,31.7783 71.5,34.5C 72.6632,40.1375 72.8299,45.8041 72,51.5C 65.5836,55.6254 59.0836,59.6254 52.5,63.5C 51.0451,69.0048 47.5451,72.6714 42,74.5C 39.6667,73.8333 37.3333,73.1667 35,72.5C 28.9552,76.3795 22.4552,77.3795 15.5,75.5C 13.7188,72.9088 11.7188,70.5755 9.5,68.5C 8.71793,61.451 9.8846,54.7844 13,48.5C 13.3333,41.5 13.6667,34.5 14,27.5C 18.3333,22.5 22.6667,17.5 27,12.5C 36.089,11.6808 45.2556,11.1808 54.5,11C 55.5505,9.61524 56.8839,8.61524 58.5,8C 61.8168,7.50166 65.1501,7.33499 68.5,7.5 Z"/></g>
<g><path style="opacity:0.971" fill="#2200c4" d="M 68.5,7.5 C 71.4188,8.29273 74.0855,9.62606 76.5,11.5C 76.0674,17.7627 78.7341,21.7627 84.5,23.5C 84.8244,28.3737 86.3244,32.707 89,36.5C 89.6667,40.5 89.6667,44.5 89,48.5C 87.8333,49.6667 86.6667,50.8333 85.5,52C 86.7875,53.4095 87.9542,54.9095 89,56.5C 89.6667,61.5 89.6667,66.5 89,71.5C 83.8333,76 78.6667,80.5 73.5,85C 59.5844,87.8758 45.5844,89.8758 31.5,91C 30.5,90 29.5,89 28.5,88C 24.1667,87.6667 19.8333,87.3333 15.5,87C 10.7746,81.7161 8.77456,75.5494 9.5,68.5C 11.7188,70.5755 13.7188,72.9088 15.5,75.5C 22.4552,77.3795 28.9552,76.3795 35,72.5C 37.3333,73.1667 39.6667,73.8333 42,74.5C 47.5451,72.6714 51.0451,69.0048 52.5,63.5C 59.0836,59.6254 65.5836,55.6254 72,51.5C 72.8299,45.8041 72.6632,40.1375 71.5,34.5C 65.5838,31.7783 65.0838,28.445 70,24.5C 70.9484,18.6547 70.4484,12.988 68.5,7.5 Z"/></g>
<g><path style="opacity:1" fill="#2300c5" d="M 49.5,24.5 C 51.8333,24.5 54.1667,24.5 56.5,24.5C 56.3436,28.9041 57.8436,32.5708 61,35.5C 61.6667,37.5 61.6667,39.5 61,41.5C 56.5825,44.2926 52.0825,46.9593 47.5,49.5C 43.4147,44.7838 40.748,39.4504 39.5,33.5C 39.5396,31.5711 39.8729,29.7378 40.5,28C 43.7177,27.0997 46.7177,25.933 49.5,24.5 Z"/></g>
<g><path style="opacity:1" fill="#2300c5" d="M 24.5,51.5 C 27.5497,50.9232 29.5497,52.0899 30.5,55C 31.938,55.2189 33.2713,55.7189 34.5,56.5C 33.2957,59.7394 31.9624,62.906 30.5,66C 29.1667,66.6667 27.8333,66.6667 26.5,66C 22.1844,61.6142 21.5177,56.7809 24.5,51.5 Z"/></g>
</svg>
